<?xml version="1.0" encoding="UTF-8"?>
<svg id="Layer_1" xmlns="http://www.w3.org/2000/svg" version="1.1" viewBox="0 0 566.9 566.9">
  <!-- Generator: Adobe Illustrator 29.1.0, SVG Export Plug-In . SVG Version: 2.1.0 Build 142)  -->
  <defs>
    <style>
      .st0 {
        fill: #fff;
      }

      .st1 {
        font-family: CourierNewPS-BoldMT, 'Courier New';
        font-size: 140px;
        font-weight: 700;
      }

      .st2 {
        fill: #fff6e9;
        stroke-width: 11.1px;
      }

      .st2, .st3 {
        stroke: #a7a9ac;
      }

      .st2, .st3, .st4 {
        stroke-miterlimit: 10;
      }

      .st3 {
        stroke-width: 6px;
      }

      .st3, .st4 {
        fill: none;
      }

      .st4 {
        stroke: #000;
        stroke-width: 3px;
      }
    </style>
  </defs>
  <rect class="st2" x="5.9" y="5.8" width="555.2" height="555.2" rx="14.2" ry="14.2"/>
  <path class="st0" d="M157.5,280l.2-.3c-2.6-10.2-.4-21.6,6.9-30.3l49.3-58.8,2.5-4v-55.1l-59-58.8h-88c-4.7,0-8.5,3.8-8.5,8.5v190.2c0,4.7,3.8,8.5,8.5,8.5h88.1Z"/>
  <path class="st4" d="M216.4,130.4"/>
  <path class="st4" d="M158.8,72.8"/>
  <g>
    <path d="M211.7,130.4h-44.3c-4.7,0-8.5-3.8-8.5-8.5v-44.3l52.8,52.8Z"/>
    <path class="st4" d="M211.7,130.4h-44.3c-4.7,0-8.5-3.8-8.5-8.5v-44.3l52.8,52.8Z"/>
  </g>
  <line class="st3" x1="82.3" y1="113.4" x2="138.6" y2="113.4"/>
  <line class="st3" x1="82.3" y1="133.4" x2="138.6" y2="133.4"/>
  <line class="st3" x1="82.3" y1="153.5" x2="196.6" y2="153.5"/>
  <line class="st3" x1="82.3" y1="173.6" x2="196.6" y2="173.6"/>
  <line class="st3" x1="82.3" y1="193.7" x2="196.6" y2="193.7"/>
  <line class="st3" x1="82.3" y1="213.8" x2="181.1" y2="213.8"/>
  <line class="st3" x1="82.3" y1="233.9" x2="165.6" y2="233.9"/>
  <text class="st1" transform="translate(71.3 456.7)"><tspan x="0" y="0">LCCMS</tspan></text>
  <path class="st4" d="M367.3,161.6"/>
  <polygon points="432.9 111.5 405.2 111.5 411.4 84.7 426.7 84.7 432.9 111.5"/>
  <path d="M398.6,113.3l-15.1,8.7c3.5-5,6.2-10.5,7.8-16.5l7.3,7.8Z"/>
  <path d="M366.8,137l-10.9,18.9-13.1-12.2c8.7-.3,16.9-2.7,24-6.8Z"/>
  <polygon points="354.2 162.5 354.2 190.2 327.4 184.1 327.4 168.7 354.2 162.5"/>
  <polygon points="355.9 196.8 369.8 220.8 343.5 228.8 335.8 215.6 355.9 196.8"/>
  <polygon points="374.6 225.6 398.6 239.5 379.9 259.6 366.6 251.9 374.6 225.6"/>
  <polygon points="405.2 241.3 432.9 241.3 426.7 268 411.4 268 405.2 241.3"/>
  <polygon points="439.5 239.5 463.5 225.6 471.5 251.9 458.2 259.6 439.5 239.5"/>
  <polygon points="468.3 220.8 482.1 196.8 502.2 215.6 494.6 228.8 468.3 220.8"/>
  <polygon points="483.9 190.2 483.9 162.5 510.7 168.7 510.7 184.1 483.9 190.2"/>
  <polygon points="482.1 155.9 468.3 131.9 494.6 123.9 502.2 137.2 482.1 155.9"/>
  <polygon points="463.5 127.1 439.5 113.3 458.2 93.2 471.5 100.9 463.5 127.1"/>
  <g>
    <path d="M301,106.7l-125,148.9c-7.7,9.1-7.3,22.1.9,29l3,2.5c8.2,6.9,21,5,28.7-4.1l125-148.9-32.5-27.3ZM184.1,279c-3.9-3.3-4.1-9.5-.4-13.8,3.7-4.4,9.8-5.3,13.7-2s4.1,9.5.4,13.8-9.8,5.3-13.7,2Z"/>
    <path d="M371.4,117.1c-15.6,18.6-41.8,22.4-58.5,8.4-16.7-14-17.5-40.4-1.9-59.1,8.4-10,19.9-15.7,31.3-16.7l-21,25,9.2,29.8,30.9,3.9,21-25c1,11.4-2.6,23.7-11,33.7Z"/>
  </g>
  <path d="M419,109.4c-12,0-23.3,3.2-33.1,8.7-5.2,8.8-12.9,16-22.2,20.5-7.3,10.7-11.6,23.7-11.6,37.7,0,37,30,66.9,66.9,66.9s66.9-30,66.9-66.9-30-66.9-66.9-66.9ZM419,206.1c-18,0-32.5-14.6-32.5-32.5s14.5-32.5,32.5-32.5,32.5,14.6,32.5,32.5-14.6,32.5-32.5,32.5Z"/>
</svg>