<?xml version="1.0" encoding="UTF-8"?>
<svg id="bg" xmlns="http://www.w3.org/2000/svg" version="1.1" viewBox="0 0 800 800">
  <defs>
    <style>
      .cls-1 {
        fill: #fff;
        stroke: #fff;
        stroke-miterlimit: 10;
        stroke-width: 1.3px;
      }

      .cls-2 {
        fill: #c20005;
        stroke-width: 0px;
      }
    </style>
  </defs>
  <rect class="cls-1" x="161.9" y="122.4" width="475.8" height="524.3"/>
  <g id="Layer_1" data-name="Layer 1">
    <path class="cls-2" d="M353.9,382.4l156.2,123.2-103.5-255.3-52.7,132.2ZM400,0C179,0,0,179,0,400s179,400,400,400,400-179,400-400S621,0,400,0ZM593.2,576.8c-.4,15.7-13.4,28.1-29.2,27.7-7.8,0-13.8-3-22.1-9.8l-206.4-166.7-69.3,173.4h-59.9l174.9-420.2c4.2-10.5,14.2-17.3,25.5-16.9,10.8-.4,21,6.2,24.7,16.9l159.1,383.1c1.4,3.8,2.6,7.8,2.6,11.6v.8h0Z"/>
  </g>
</svg>